<svg viewBox="0 0 64 64" xmlns="http://www.w3.org/2000/svg" xml:space="preserve" style="fill-rule:evenodd;clip-rule:evenodd;stroke-linejoin:round;stroke-miterlimit:2"><path d="M32.961 18.183A2.417 2.417 0 0 1 35 17.086c.831 0 1.602.415 2.039 1.097l24.699 38.564c.457.713.478 1.61.055 2.343a2.41 2.41 0 0 1-2.094 1.188H10.301a2.41 2.41 0 0 1-2.094-1.188 2.245 2.245 0 0 1 .055-2.343l24.699-38.564Z" style="fill:#4386fa" transform="matrix(0 1.17501 -1.21712 0 80.561 -9.125)"/><path d="m42.731 39.654-16.83-16.776s3.87 9.283-1.406 14.545c-5.276 5.262-14.883 1.894-14.883 1.894l12.84 12.875 20.279-12.538Z" style="fill-opacity:.1;fill-rule:nonzero" transform="translate(7.196)"/><path d="M45.267 43.23 41 38.953a.66.66 0 0 0-.158-.12 11.63 11.63 0 0 0 2.443-7.132c0-6.38-5.249-11.63-11.63-11.63-6.38 0-11.63 5.25-11.63 11.63 0 6.38 5.25 11.63 11.63 11.63a11.63 11.63 0 0 0 7.155-2.461c.03.055.068.106.113.15l4.277 4.277c.26.26.687.26.947 0l1.12-1.12a.672.672 0 0 0 0-.947ZM31.64 40.464h-.001c-4.8 0-8.75-3.95-8.75-8.75s3.95-8.75 8.75-8.75 8.75 3.95 8.75 8.75v.001c-.001 4.799-3.95 8.748-8.749 8.749Zm-5.593-9.216v3.616a6.426 6.426 0 0 0 2.338 2.375v-6.013l-2.338.022Zm4.375-2.998v9.772a6.469 6.469 0 0 0 2.338 0V28.25h-2.338Zm6.764 6.606v-2.142H34.85v4.5a6.422 6.422 0 0 0 2.338-2.368l-.002.01Z" style="fill:#fff;fill-rule:nonzero" transform="translate(-7.405 -1.284)"/></svg>