<?xml version="1.0" encoding="UTF-8" standalone="no"?>
<!DOCTYPE svg PUBLIC "-//W3C//DTD SVG 1.1//EN" "http://www.w3.org/Graphics/SVG/1.1/DTD/svg11.dtd">
<svg width="100%" height="100%" viewBox="0 0 2500 2500" version="1.1" xmlns="http://www.w3.org/2000/svg" xmlns:xlink="http://www.w3.org/1999/xlink" xml:space="preserve" xmlns:serif="http://www.serif.com/" style="fill-rule:evenodd;clip-rule:evenodd;stroke-linejoin:round;stroke-miterlimit:2;">
    <g transform="matrix(6.92194e-17,1.13044,-1.19225,7.30043e-17,2974.75,-94.367)">
        <path d="M1034.57,600.049C1061.82,545.554 1119.74,510.815 1183.34,510.815C1246.95,510.815 1304.87,545.554 1332.11,600.049C1542.63,1021.09 1922.72,1781.26 2110.71,2157.24C2134.89,2205.6 2131.25,2262.34 2101.07,2307.57C2070.9,2352.8 2018.38,2380.22 1961.94,2380.22L404.746,2380.22C348.298,2380.22 295.785,2352.8 265.608,2307.57C235.43,2262.34 231.794,2205.6 255.975,2157.24C443.966,1781.26 824.05,1021.09 1034.57,600.049Z" style="fill:rgb(67,135,251);"/>
    </g>
    <path d="M967.698,2023.85L1814.5,1622.39L1128.35,936.213L811.725,851.48L527.321,957.182L417.487,1243.34L505.8,1561.95L967.698,2023.85Z" style="fill-opacity:0.07;fill-rule:nonzero;"/>
    <g transform="matrix(1,0,0,1,-438.282,0)">
        <path d="M1250.01,801.562C1006.04,801.562 808.25,999.348 808.25,1243.34C808.25,1487.31 1006.04,1685.09 1250.01,1685.09C1493.98,1685.09 1691.74,1487.31 1691.74,1243.34C1691.74,999.348 1493.96,801.562 1250.01,801.562M1250.01,1578.52C1064.89,1578.52 914.809,1428.44 914.809,1243.32C914.809,1058.2 1064.89,908.14 1250.01,908.14C1435.13,908.14 1585.2,1058.22 1585.2,1243.34C1585.2,1428.46 1435.13,1578.54 1250.01,1578.54" style="fill:white;fill-rule:nonzero;"/>
        <path d="M1040.32,1226.27L1040.32,1363.59C1060.63,1398.47 1089.3,1427.76 1123.74,1448.82L1123.74,1226.27L1040.32,1226.27ZM1205.73,1110.52L1205.73,1480.2C1219.91,1482.81 1234.43,1484.39 1249.34,1484.39C1262.94,1484.39 1276.19,1482.97 1289.2,1480.8L1289.2,1110.52L1205.73,1110.52ZM1378.87,1283.33L1378.87,1446.4C1413.85,1424.15 1442.58,1393.34 1462.32,1356.89L1462.32,1283.35L1378.87,1283.33ZM1567.89,1515.44L1522.13,1561.24C1514.11,1569.28 1514.11,1582.48 1522.13,1590.52L1695.73,1764.06C1703.76,1772.07 1716.96,1772.07 1725,1764.06L1770.76,1718.31C1778.73,1710.26 1778.73,1697.11 1770.76,1689.06L1597.15,1515.44C1589.1,1507.45 1575.93,1507.45 1567.89,1515.44" style="fill:white;fill-rule:nonzero;"/>
    </g>
</svg>
