<?xml version="1.0" encoding="UTF-8" standalone="no"?>
<!DOCTYPE svg PUBLIC "-//W3C//DTD SVG 1.1//EN" "http://www.w3.org/Graphics/SVG/1.1/DTD/svg11.dtd">
<svg width="100%" height="100%" viewBox="0 0 24 24" version="1.1" xmlns="http://www.w3.org/2000/svg" xmlns:xlink="http://www.w3.org/1999/xlink" xml:space="preserve" xmlns:serif="http://www.serif.com/" style="fill-rule:evenodd;clip-rule:evenodd;stroke-linejoin:round;stroke-miterlimit:2;">
    <path d="M11.088,15.931L13.041,17.884L3.624,22.348C3.055,22.618 2.387,22.577 1.855,22.24C1.323,21.904 1,21.318 1,20.688L1,3.312C1,2.682 1.323,2.096 1.855,1.76C2.387,1.423 3.055,1.382 3.624,1.652C8.049,3.75 16.995,7.991 21.95,10.34C22.591,10.644 23,11.29 23,12C23,12.71 22.591,13.356 21.95,13.66L14.576,17.156L12.223,14.803C12.789,14.014 13.123,13.046 13.123,12C13.123,9.424 11.1,7.321 8.557,7.192L8.309,7.186C5.65,7.186 3.495,9.341 3.495,12C3.495,14.659 5.65,16.814 8.309,16.814C9.344,16.814 10.304,16.487 11.088,15.931ZM8.226,8.787C6.489,8.831 5.095,10.253 5.095,12C5.095,13.775 6.534,15.214 8.309,15.214C10.084,15.214 11.523,13.775 11.523,12C11.523,10.253 10.128,8.831 8.392,8.787L8.226,8.787ZM10.505,12C10.505,13.212 9.521,14.197 8.309,14.197C7.096,14.197 6.112,13.212 6.112,12L10.505,12Z" style="fill:rgb(67,135,251);"/>
</svg>
