<?xml version="1.0" encoding="UTF-8" standalone="no"?>
<!DOCTYPE svg PUBLIC "-//W3C//DTD SVG 1.1//EN" "http://www.w3.org/Graphics/SVG/1.1/DTD/svg11.dtd">
<svg width="100%" height="100%" viewBox="0 0 2500 2500" version="1.1" xmlns="http://www.w3.org/2000/svg" xmlns:xlink="http://www.w3.org/1999/xlink" xml:space="preserve" xmlns:serif="http://www.serif.com/" style="fill-rule:evenodd;clip-rule:evenodd;stroke-linejoin:round;stroke-miterlimit:2;">
    <path d="M1229.15,1899.9L402.783,2291.66C345.123,2318.99 277.479,2314.89 223.553,2280.77C169.626,2246.66 136.936,2187.29 136.936,2123.48L136.936,363.174C136.936,299.363 169.626,240 223.553,205.886C277.479,171.772 345.123,167.662 402.783,194.998C851.048,407.51 1757.36,837.172 2259.35,1075.15C2324.32,1105.95 2365.73,1171.42 2365.73,1243.33C2365.73,1315.23 2324.32,1380.7 2259.35,1411.51L1516.97,1763.45L1321.33,1567.82C1384.83,1477.93 1422.14,1368.29 1422.14,1250C1422.14,945.521 1174.94,698.323 870.463,698.323C565.985,698.323 318.787,945.521 318.787,1250C318.787,1554.48 565.985,1801.68 870.463,1801.68C947.253,1801.68 1020.4,1785.95 1086.82,1757.57L1229.15,1899.9ZM870.463,998.323C1009.37,998.323 1122.14,1111.1 1122.14,1250C1122.14,1388.9 1009.37,1501.68 870.463,1501.68C731.559,1501.68 618.787,1388.9 618.787,1250C618.787,1111.1 731.559,998.323 870.463,998.323Z" style="fill:rgb(67,135,251);"/>
</svg>
