<?xml version="1.0" encoding="UTF-8" standalone="no"?>
<!DOCTYPE svg PUBLIC "-//W3C//DTD SVG 1.1//EN" "http://www.w3.org/Graphics/SVG/1.1/DTD/svg11.dtd">
<svg width="100%" height="100%" viewBox="0 0 24 24" version="1.1" xmlns="http://www.w3.org/2000/svg" xmlns:xlink="http://www.w3.org/1999/xlink" xml:space="preserve" xmlns:serif="http://www.serif.com/" style="fill-rule:evenodd;clip-rule:evenodd;stroke-miterlimit:1;">
    <g transform="matrix(0.00992826,0,0,0.00992826,-4.42452,-0.362285)">
        <path d="M1250.01,801.562C1006.04,801.562 808.25,999.348 808.25,1243.34C808.25,1487.31 1006.04,1685.09 1250.01,1685.09C1493.98,1685.09 1691.74,1487.31 1691.74,1243.34C1691.74,999.348 1493.96,801.562 1250.01,801.562" style="fill:none;fill-rule:nonzero;stroke:white;stroke-width:161.16px;"/>
    </g>
    <g transform="matrix(1,0,0,1,-2.67972,3.74686)">
        <path d="M13.571,11.162L16.121,13.712" style="fill:none;stroke:white;stroke-width:1.6px;"/>
    </g>
    <g transform="matrix(7.46547e-19,0.012192,-0.0128587,7.87368e-19,30.6065,-2.44558)">
        <path d="M1034.57,600.049C1061.82,545.554 1119.74,510.815 1183.34,510.815C1246.95,510.815 1304.87,545.554 1332.11,600.049C1542.63,1021.09 1922.72,1781.26 2110.71,2157.24C2134.89,2205.6 2131.25,2262.34 2101.07,2307.57C2070.9,2352.8 2018.38,2380.22 1961.94,2380.22L404.746,2380.22C348.298,2380.22 295.785,2352.8 265.608,2307.57C235.43,2262.34 231.794,2205.6 255.975,2157.24C443.966,1781.26 824.05,1021.09 1034.57,600.049ZM1153.15,653.352C1158.68,642.295 1170.43,635.245 1183.34,635.245C1196.24,635.245 1208,642.286 1213.52,653.34C1424.05,1074.39 1804.14,1834.56 1992.13,2210.54C1997.03,2220.36 1996.29,2231.87 1990.17,2241.04C1984.04,2250.23 1973.39,2255.79 1961.94,2255.79L404.746,2255.79C393.292,2255.79 382.636,2250.23 376.513,2241.05C370.389,2231.87 369.65,2220.36 374.556,2210.55L1153.15,653.352Z" style="fill:white;"/>
    </g>
    <g transform="matrix(1.06797,0,0,1.06797,-1.30797,-1.0558)">
        <path d="M10.949,12.208C10.949,13.448 9.943,14.455 8.702,14.455C7.462,14.455 6.455,13.448 6.455,12.208L10.949,12.208Z" style="fill:white;"/>
    </g>
</svg>
